<mxfile host="app.diagrams.net" modified="2023-03-03T01:47:17.700Z" agent="5.0 (Macintosh; Intel Mac OS X 10_15_7) AppleWebKit/537.36 (KHTML, like Gecko) Chrome/110.0.0.0 Safari/537.36" etag="zrTmhfOkAbyaDNFWkyh2" version="20.8.23" type="github">
  <diagram id="R2lEEEUBdFMjLlhIrx00" name="Page-1">
    <mxGraphModel dx="1242" dy="795" grid="1" gridSize="10" guides="1" tooltips="1" connect="1" arrows="1" fold="1" page="1" pageScale="1" pageWidth="850" pageHeight="1100" math="0" shadow="0" extFonts="Permanent Marker^https://fonts.googleapis.com/css?family=Permanent+Marker">
      <root>
        <mxCell id="0" />
        <mxCell id="1" parent="0" />
        <mxCell id="TXq1j1xUIZr-1GkS8CdU-13" style="rounded=0;orthogonalLoop=1;jettySize=auto;html=1;exitX=1;exitY=0;exitDx=0;exitDy=0;entryX=0;entryY=1;entryDx=0;entryDy=0;endArrow=none;endFill=0;" edge="1" parent="1" source="TXq1j1xUIZr-1GkS8CdU-1" target="TXq1j1xUIZr-1GkS8CdU-4">
          <mxGeometry relative="1" as="geometry" />
        </mxCell>
        <mxCell id="TXq1j1xUIZr-1GkS8CdU-14" style="edgeStyle=none;rounded=0;orthogonalLoop=1;jettySize=auto;html=1;exitX=1;exitY=0.5;exitDx=0;exitDy=0;entryX=0;entryY=0.5;entryDx=0;entryDy=0;endArrow=none;endFill=0;" edge="1" parent="1" source="TXq1j1xUIZr-1GkS8CdU-1" target="TXq1j1xUIZr-1GkS8CdU-5">
          <mxGeometry relative="1" as="geometry" />
        </mxCell>
        <mxCell id="TXq1j1xUIZr-1GkS8CdU-15" style="edgeStyle=none;rounded=0;orthogonalLoop=1;jettySize=auto;html=1;exitX=1;exitY=1;exitDx=0;exitDy=0;entryX=0.008;entryY=0.263;entryDx=0;entryDy=0;entryPerimeter=0;endArrow=none;endFill=0;" edge="1" parent="1" source="TXq1j1xUIZr-1GkS8CdU-1" target="TXq1j1xUIZr-1GkS8CdU-6">
          <mxGeometry relative="1" as="geometry" />
        </mxCell>
        <mxCell id="TXq1j1xUIZr-1GkS8CdU-1" value="pv and uv" style="rounded=1;whiteSpace=wrap;html=1;" vertex="1" parent="1">
          <mxGeometry x="120" y="280" width="110" height="60" as="geometry" />
        </mxCell>
        <mxCell id="TXq1j1xUIZr-1GkS8CdU-4" value="时间：一天为单位" style="ellipse;whiteSpace=wrap;html=1;" vertex="1" parent="1">
          <mxGeometry x="330" y="150" width="120" height="80" as="geometry" />
        </mxCell>
        <mxCell id="TXq1j1xUIZr-1GkS8CdU-5" value="countPv&amp;nbsp; &amp;nbsp;pv当天总量" style="ellipse;whiteSpace=wrap;html=1;" vertex="1" parent="1">
          <mxGeometry x="330" y="270" width="120" height="80" as="geometry" />
        </mxCell>
        <mxCell id="TXq1j1xUIZr-1GkS8CdU-6" value="countUv&amp;nbsp; uv当天总量" style="ellipse;whiteSpace=wrap;html=1;" vertex="1" parent="1">
          <mxGeometry x="330" y="380" width="120" height="80" as="geometry" />
        </mxCell>
      </root>
    </mxGraphModel>
  </diagram>
</mxfile>
